<mxfile host="app.diagrams.net" modified="2024-03-21T16:50:33.741Z" agent="Mozilla/5.0 (Windows NT 10.0; Win64; x64) AppleWebKit/537.36 (KHTML, like Gecko) Chrome/122.0.0.0 Safari/537.36" etag="oG1Lzc5DY27kICbmv1sV" version="23.0.2" type="device">
  <diagram name="Pagina-1" id="TTGLnNZnKKBRxLtUwzvF">
    <mxGraphModel dx="1050" dy="1734" grid="1" gridSize="10" guides="1" tooltips="1" connect="1" arrows="1" fold="1" page="1" pageScale="1" pageWidth="827" pageHeight="1169" math="0" shadow="0">
      <root>
        <mxCell id="0" />
        <mxCell id="1" parent="0" />
        <mxCell id="ZtryLQ5XX7l_f81LWLDO-4" value="" style="rounded=0;whiteSpace=wrap;html=1;" vertex="1" parent="1">
          <mxGeometry x="90" y="-924" width="480" height="340" as="geometry" />
        </mxCell>
        <mxCell id="ZtryLQ5XX7l_f81LWLDO-1" value="UI&lt;br&gt;(NodeJS, React)" style="rounded=0;whiteSpace=wrap;html=1;" vertex="1" parent="1">
          <mxGeometry x="120" y="-864" width="120" height="60" as="geometry" />
        </mxCell>
        <mxCell id="ZtryLQ5XX7l_f81LWLDO-2" value="WebService&lt;br&gt;(Flask)" style="rounded=0;whiteSpace=wrap;html=1;" vertex="1" parent="1">
          <mxGeometry x="370" y="-864" width="120" height="60" as="geometry" />
        </mxCell>
        <mxCell id="ZtryLQ5XX7l_f81LWLDO-5" value="DockerEngine" style="text;html=1;align=center;verticalAlign=middle;resizable=0;points=[];autosize=1;strokeColor=none;fillColor=none;" vertex="1" parent="1">
          <mxGeometry x="90" y="-954" width="100" height="30" as="geometry" />
        </mxCell>
        <mxCell id="ZtryLQ5XX7l_f81LWLDO-8" value="" style="rounded=0;whiteSpace=wrap;html=1;" vertex="1" parent="1">
          <mxGeometry x="350" y="-704" width="120" height="60" as="geometry" />
        </mxCell>
        <mxCell id="ZtryLQ5XX7l_f81LWLDO-3" value="Dati.csv" style="rounded=0;whiteSpace=wrap;html=1;" vertex="1" parent="1">
          <mxGeometry x="405" y="-699" width="50" height="50" as="geometry" />
        </mxCell>
        <mxCell id="ZtryLQ5XX7l_f81LWLDO-6" value="Container Front-End" style="text;html=1;align=center;verticalAlign=middle;resizable=0;points=[];autosize=1;strokeColor=none;fillColor=none;" vertex="1" parent="1">
          <mxGeometry x="120" y="-894" width="130" height="30" as="geometry" />
        </mxCell>
        <mxCell id="ZtryLQ5XX7l_f81LWLDO-7" value="Container Back-End" style="text;html=1;align=center;verticalAlign=middle;resizable=0;points=[];autosize=1;strokeColor=none;fillColor=none;" vertex="1" parent="1">
          <mxGeometry x="370" y="-894" width="130" height="30" as="geometry" />
        </mxCell>
        <mxCell id="ZtryLQ5XX7l_f81LWLDO-9" value="Volume Docker" style="text;html=1;align=center;verticalAlign=middle;resizable=0;points=[];autosize=1;strokeColor=none;fillColor=none;" vertex="1" parent="1">
          <mxGeometry x="325" y="-734" width="100" height="30" as="geometry" />
        </mxCell>
        <mxCell id="ZtryLQ5XX7l_f81LWLDO-11" value="" style="endArrow=classic;html=1;rounded=0;exitX=1;exitY=0.5;exitDx=0;exitDy=0;" edge="1" parent="1">
          <mxGeometry width="50" height="50" relative="1" as="geometry">
            <mxPoint x="240" y="-844" as="sourcePoint" />
            <mxPoint x="370" y="-844" as="targetPoint" />
          </mxGeometry>
        </mxCell>
        <mxCell id="ZtryLQ5XX7l_f81LWLDO-12" value="POST request" style="text;html=1;align=center;verticalAlign=middle;resizable=0;points=[];autosize=1;strokeColor=none;fillColor=none;" vertex="1" parent="1">
          <mxGeometry x="260" y="-874" width="100" height="30" as="geometry" />
        </mxCell>
        <mxCell id="ZtryLQ5XX7l_f81LWLDO-15" value="Read CSV" style="text;html=1;align=center;verticalAlign=middle;resizable=0;points=[];autosize=1;strokeColor=none;fillColor=none;" vertex="1" parent="1">
          <mxGeometry x="425" y="-784" width="80" height="30" as="geometry" />
        </mxCell>
        <mxCell id="ZtryLQ5XX7l_f81LWLDO-16" value="" style="endArrow=classic;startArrow=classic;html=1;rounded=0;entryX=0.5;entryY=1;entryDx=0;entryDy=0;" edge="1" parent="1" source="ZtryLQ5XX7l_f81LWLDO-3" target="ZtryLQ5XX7l_f81LWLDO-2">
          <mxGeometry width="50" height="50" relative="1" as="geometry">
            <mxPoint x="400" y="-744" as="sourcePoint" />
            <mxPoint x="450" y="-794" as="targetPoint" />
          </mxGeometry>
        </mxCell>
        <mxCell id="ZtryLQ5XX7l_f81LWLDO-17" value="" style="endArrow=classic;html=1;rounded=0;exitX=0;exitY=0.75;exitDx=0;exitDy=0;entryX=1;entryY=0.75;entryDx=0;entryDy=0;" edge="1" parent="1" source="ZtryLQ5XX7l_f81LWLDO-2" target="ZtryLQ5XX7l_f81LWLDO-1">
          <mxGeometry width="50" height="50" relative="1" as="geometry">
            <mxPoint x="310" y="-754" as="sourcePoint" />
            <mxPoint x="360" y="-804" as="targetPoint" />
          </mxGeometry>
        </mxCell>
        <mxCell id="ZtryLQ5XX7l_f81LWLDO-18" value="Return JSON" style="text;html=1;align=center;verticalAlign=middle;resizable=0;points=[];autosize=1;strokeColor=none;fillColor=none;" vertex="1" parent="1">
          <mxGeometry x="260" y="-824" width="90" height="30" as="geometry" />
        </mxCell>
      </root>
    </mxGraphModel>
  </diagram>
</mxfile>
